<!--?xml version="1.0" standalone="no"?-->
              <svg id="sw-js-blob-svg" viewBox="0 0 100 100" xmlns="http://www.w3.org/2000/svg" version="1.1">
                    <defs> 
                        <linearGradient id="sw-gradient" x1="0" x2="1" y1="1" y2="0">
                            <stop id="stop1" stop-color="rgba(35.752, 28.129, 103.665, 1)" offset="0%"></stop>
                            <stop id="stop2" stop-color="rgba(0, 43.37, 255, 1)" offset="100%"></stop>
                        </linearGradient>
                    </defs>
                <path fill="url(#sw-gradient)" d="M12,-21.1C17.3,-17.8,24.3,-18,30.9,-15C37.5,-12.1,43.6,-6,40.6,-1.7C37.6,2.6,25.5,5.1,20.3,10.6C15.2,16,17,24.4,14.8,27.8C12.6,31.3,6.3,29.8,1.6,27.1C-3.1,24.4,-6.3,20.3,-7.2,16.1C-8.1,11.9,-6.7,7.5,-10.5,4.8C-14.3,2.1,-23.2,1,-28.9,-3.3C-34.6,-7.6,-37.2,-15.3,-35.2,-21.2C-33.3,-27.1,-26.8,-31.2,-20.2,-33.6C-13.6,-36,-6.8,-36.7,-1.7,-33.8C3.4,-30.8,6.8,-24.3,12,-21.1Z" width="100%" height="100%" transform="translate(50 50)" stroke-width="0" style="transition: all 0.3s ease 0s;" stroke="url(#sw-gradient)"></path>
              </svg>